inDegrees=no
num_controls=7
num_derivatives=13
num_iterations=146
num_multipliers=7
num_parameters=0
num_slacks=7
num_states=26
objective=6.234536
objective_accelerations=0.720799
objective_balance=0.061825
objective_effort=0.592178
objective_height=4.812559
objective_ligament=0.047175
solver_duration=1521.847259
status=Solve_Succeeded
success=true
DataType=double
version=3
OpenSimVersion=4.4-2022-07-23-0e9fedc
endheader
time	/jointset/ground_pelvis/pelvis_tilt/value	/jointset/ground_pelvis/pelvis_tx/value	/jointset/ground_pelvis/pelvis_ty/value	/jointset/hip_l/hip_flexion_l/value	/jointset/hip_l/hip_adduction_l/value	/jointset/hip_l/hip_rotation_l/value	/jointset/back/lumbar_extension/value	/jointset/patellofemoral_l/patellar_flexion_l/value	/jointset/knee_l/knee_flexion_l/value	/jointset/knee_l/knee_adduction_l/value	/jointset/knee_l/knee_rotation_l/value	/jointset/ankle_l/ankle_angle_l/value	/jointset/subtalar_l/subtalar_angle_l/value	/jointset/ground_pelvis/pelvis_tilt/speed	/jointset/ground_pelvis/pelvis_tx/speed	/jointset/ground_pelvis/pelvis_ty/speed	/jointset/hip_l/hip_flexion_l/speed	/jointset/hip_l/hip_adduction_l/speed	/jointset/hip_l/hip_rotation_l/speed	/jointset/back/lumbar_extension/speed	/jointset/patellofemoral_l/patellar_flexion_l/speed	/jointset/knee_l/knee_flexion_l/speed	/jointset/knee_l/knee_adduction_l/speed	/jointset/knee_l/knee_rotation_l/speed	/jointset/ankle_l/ankle_angle_l/speed	/jointset/subtalar_l/subtalar_angle_l/speed	/forceset/tau_hip_flexion_l	/forceset/tau_hip_adduction_l	/forceset/tau_hip_rotation_l	/forceset/tau_knee_flexion_l	/forceset/tau_ankle_angle_l	/forceset/tau_subtalar_angle_l	/forceset/tau_lumbar_extension	lambda_cid13_p0	lambda_cid13_p1	lambda_cid13_p2	lambda_cid13_p3	lambda_cid13_p4	lambda_cid13_p5	lambda_cid14_p0	/jointset/ground_pelvis/pelvis_tilt/accel	/jointset/ground_pelvis/pelvis_tx/accel	/jointset/ground_pelvis/pelvis_ty/accel	/jointset/hip_l/hip_flexion_l/accel	/jointset/hip_l/hip_adduction_l/accel	/jointset/hip_l/hip_rotation_l/accel	/jointset/back/lumbar_extension/accel	/jointset/patellofemoral_l/patellar_flexion_l/accel	/jointset/knee_l/knee_flexion_l/accel	/jointset/knee_l/knee_adduction_l/accel	/jointset/knee_l/knee_rotation_l/accel	/jointset/ankle_l/ankle_angle_l/accel	/jointset/subtalar_l/subtalar_angle_l/accel	gamma_cid13_p0	gamma_cid13_p1	gamma_cid13_p2	gamma_cid13_p3	gamma_cid13_p4	gamma_cid13_p5	gamma_cid14_p0
0.5	-0.1634461051151217	-0.0674063061272239	0.7766908330207097	1.095092238402552	-0.3214489482686383	-0.07363635516700927	-0.8074207668176143	0.9869772217336957	0.9869772217336962	-0.07079477634163356	-0.1745320706348609	0.1255303665442433	0.01412716367862881	-0.2982863674334933	-0.1928041341681778	-0.5289006630534798	2.028772060539498	-0.004631367144213782	0.5419371445485018	-0.8263168838979987	1.959699832830309	1.959699832830313	0.251222586038944	-1.769291344314796e-05	0.3623312037701983	0.1186822036978452	-0.3228162572632391	0.01415584712286514	-0.007715985632679629	-0.2360282274343756	0.1032314588845584	0.05230588277904336	0.3583504881647107	-10.54148499094778	-21.68575380604257	3.933974123790569	-13.52090535463843	-701.2211618239235	-74.6949444627428	-7.021455688906265	0.5332761348667943	0.8721288891633113	-0.2519415429589352	-1.784815066321734	0.31558541622507	-0.6794259242211655	2.188407671263392	-1.492126019125324	-1.492126019125325	-0.1355424865033979	0.0005556595200056841	-0.3310976329496654	0.29335064513705	-4.03324870518281e-07	-7.599331210553914e-08	2.618830223642468e-06	2.926486581127295e-07	-4.467503235871853e-07	3.661246352489226e-07	-3.383425687397462e-07
0.51	-0.1664017426323322	-0.06929070862036796	0.7713904314671737	1.11528758969758	-0.3214807810263944	-0.06824894984967027	-0.8155738796683223	1.006496605817466	1.006496605817472	-0.06829355678478205	-0.1745320815598576	0.1291360046133381	0.01532678411018577	-0.2927946300916494	-0.1840753755096557	-0.5310588044798322	2.010024623132171	-0.001750633266420258	0.5354869539344359	-0.8042286239500097	1.943903444554668	1.943903444554671	0.2490018482797063	7.58930129248761e-06	0.3587317118074501	0.1212050831408927	-0.330724340040005	0.01419252932556398	-0.00776838229066414	-0.2399363835616158	0.1032651317634936	0.05193256543940986	0.3657553628336565	-10.88034481514874	-21.35625709210569	3.758042357262034	-13.46384737181964	-706.9861623598609	-74.24455308465996	-6.269476176627697	0.5640614777363402	0.8734567082274877	-0.1797107202824302	-1.960794967253528	0.2716403418195067	-0.6366880150226297	2.230594500604252	-1.664359586018693	-1.664359586018747	-0.26824859029672	0.002855128995642869	-0.3840654687891201	0.2259358213153813	-3.84661270717373e-07	-1.06283939387951e-08	2.58872657632811e-06	2.933146996908425e-07	-4.191890591919303e-07	4.332544474860666e-07	-3.268054906540713e-07
0.52	-0.1693010749873456	-0.07108778205612064	0.7660720564438123	1.135287249240671	-0.3214843418517199	-0.06292782091547665	-0.8235037980507429	1.025849833147633	1.025849833147645	-0.06581512643945547	-0.174531971537398	0.1327037096646352	0.01655046918165857	-0.28702533499408	-0.1753383226899003	-0.5324953570185467	1.989633710152229	0.001023019341894768	0.5286818679194374	-0.781677990240517	1.92646848210962	1.926468482109622	0.2466647437339583	6.496577838858569e-06	0.3547446002106332	0.1234951316810117	-0.3386324228167709	0.01422921152826274	-0.007820778948648096	-0.243844539688856	0.1032988046424288	0.05155924809977624	0.3731602375026022	-11.21931648817399	-21.02972485289851	3.585994124685044	-13.47436797020718	-712.7871108287112	-73.86725228203692	-5.560777404342535	0.5887876860118824	0.8737877214099654	-0.1076237654313748	-2.113510180844929	0.2941691623293703	-0.7504050044076467	2.280882423564123	-1.819840853006801	-1.819840853006801	-0.158815843805429	-0.00471932811797517	-0.4086215597633835	0.2467844645513689	-3.645525371962089e-07	4.181423457110473e-08	2.537744305366606e-06	2.897947236750845e-07	-3.897306838265255e-07	4.94500910790573e-07	-3.147837478869044e-07
0.53	-0.1721414197662534	-0.07279758210048633	0.7607429188783269	1.155075091178731	-0.3214605944591084	-0.05767641857006081	-0.831206102970667	1.045020691664038	1.045020691664042	-0.06336049035884103	-0.1745319229636804	0.1362296253486278	0.01779599643268937	-0.2810033799901372	-0.1666338238342125	-0.53321110973283	1.967680405439769	0.003710396689022617	0.5215446548704636	-0.7587291327969787	1.907438723319216	1.907438723319218	0.2442450250271327	-2.495293245837684e-06	0.3503707812523388	0.1255703831098908	-0.3462927976092992	0.01383076549367292	-0.007787469881288167	-0.2475907661376426	0.1026347608852262	0.05138566729129664	0.3801967252678584	-11.77111566066672	-20.7633156287377	3.435684503836014	-13.14668275944553	-718.3770820693206	-73.70238103642811	-4.896305750024817	0.6149017573883073	0.8670179091737871	-0.03546892409107533	-2.274427565337987	0.2532573452257703	-0.703769413541971	2.309966546844442	-1.984156376006971	-1.984156376007037	-0.2861506535338832	0.0006644392344501769	-0.4619058765794626	0.1815991130341374	-3.375764399073378e-07	8.850513547681896e-08	2.434111303088197e-06	2.792076403324993e-07	-3.55118577256877e-07	5.36973978355985e-07	-2.965383866692145e-07
0.54	-0.1749203445251611	-0.07442068976799002	0.7554102402057659	1.174635762679888	-0.3214105262281612	-0.05249806634681468	-0.8386773034877365	1.063993329995748	1.063993329995746	-0.06093057161917747	-0.174532033597506	0.1397097740804941	0.01906101692420457	-0.274741330994081	-0.1579998473175001	-0.5332035784336842	1.944199622771651	0.006287187009001586	0.5140718434855006	-0.7354571096696095	1.88682444517082	1.886824445170821	0.2417212755437973	-2.534493080385639e-05	0.3455912097853648	0.1273937797778882	-0.3539531724018273	0.01343231945908311	-0.007754160813928628	-0.2513369925864253	0.1019707171280236	0.05121208648281701	0.3872332130331216	-12.32389812085407	-20.50038807372502	3.290105825667741	-12.88167782877042	-724.0133072288112	-73.6090219981092	-4.276931425059177	0.6368064844345902	0.8596832536149176	0.0370330372544599	-2.419005771976316	0.2720517568995944	-0.8175246716054991	2.345515560330355	-2.136744724605414	-2.13674472460541	-0.1796219991073417	-0.007490881412639878	-0.4897720614992769	0.1964135123750348	-3.030024082371737e-07	1.288324228630086e-07	2.272226427863425e-06	2.608016297347009e-07	-3.148044702059374e-07	5.586764804228242e-07	-2.71407319931797e-07
0.55	-0.1776354944027757	-0.07595786161462267	0.7500812452923606	1.193954190763276	-0.321335114037178	-0.04739590836715869	-0.8459142333488556	1.082752183365852	1.082752183365849	-0.0585262891619403	-0.1745322601128843	0.1431403005565841	0.02034320953058092	-0.2682476033168966	-0.1494510625535305	-0.5324739965794922	1.919236536984162	0.008772753425373132	0.5063464925663969	-0.7118877405338468	1.864701386463929	1.864701386463931	0.2390806684075713	-1.195660284381018e-05	0.3404596481275431	0.1290003549333407	-0.361381608574578	0.01322982412240959	-0.007636887791710499	-0.2550801142098686	0.1012731683012118	0.05063146738349121	0.3940021366542113	-12.89697471841066	-20.04280745899701	3.097131735609046	-12.50070568628999	-729.4901148598557	-73.15897388479637	-3.702669490835486	0.6617840575470912	0.8500451585124453	0.1090733466912047	-2.572416691078301	0.2331167806602788	-0.7522727324876414	2.368815893255205	-2.28676126174377	-2.286761261743718	-0.3144432972667399	0.007400519280334973	-0.5329914033782375	0.1358405153551595	-2.307618889193526e-07	2.627705994342992e-09	1.662972397462461e-06	1.711943043228078e-07	-2.413239748901656e-07	4.232110128721258e-07	-2.14898143463462e-07
